<?xml version="1.0" encoding="iso-8859-1"?>
<!-- Generator: Adobe Illustrator 19.0.0, SVG Export Plug-In . SVG Version: 6.00 Build 0)  -->
<svg version="1.1" id="Layer_1" xmlns="http://www.w3.org/2000/svg" xmlns:xlink="http://www.w3.org/1999/xlink" x="0px" y="0px"
	 viewBox="0 0 356.923 356.923" style="enable-background:new 0 0 356.923 356.923;" xml:space="preserve">
<circle style="fill:#FFD55C;" cx="178.462" cy="178.462" r="178.462"/>
<g>
	<path style="fill:#FFFFFF;" d="M182.447,56.539c0,0.766-0.625,1.371-1.393,1.371c-0.761,0-1.388-0.606-1.388-1.371
		c0-0.761,0.63-1.388,1.388-1.388C181.822,55.148,182.447,55.778,182.447,56.539z"/>
	<path style="fill:#FFFFFF;" d="M175.894,56.655c0.044,0.766-0.544,1.388-1.302,1.435c-0.758,0.047-1.418-0.537-1.438-1.302
		c-0.049-0.763,0.534-1.415,1.302-1.46C175.217,55.284,175.87,55.892,175.894,56.655z"/>
	<path style="fill:#FFFFFF;" d="M169.381,57.078c0.086,0.766-0.453,1.438-1.211,1.529c-0.766,0.066-1.433-0.47-1.524-1.233
		c-0.091-0.768,0.47-1.435,1.231-1.526C168.64,55.759,169.312,56.318,169.381,57.078z"/>
	<path style="fill:#FFFFFF;" d="M162.91,57.866c0.135,0.761-0.399,1.462-1.14,1.573c-0.766,0.135-1.457-0.404-1.59-1.15
		c-0.116-0.761,0.404-1.457,1.164-1.59C162.082,56.583,162.799,57.1,162.91,57.866z"/>
	<path style="fill:#FFFFFF;" d="M156.49,58.988c0.158,0.738-0.313,1.482-1.078,1.617c-0.741,0.177-1.482-0.32-1.639-1.058
		c-0.15-0.746,0.318-1.482,1.054-1.639C155.596,57.755,156.313,58.225,156.49,58.988z"/>
	<path style="fill:#FFFFFF;" d="M150.114,60.423c0.197,0.746-0.226,1.504-0.985,1.706c-0.721,0.182-1.487-0.249-1.684-0.985
		c-0.202-0.743,0.246-1.504,0.985-1.706C149.174,59.259,149.932,59.682,150.114,60.423z"/>
	<path style="fill:#FFFFFF;" d="M143.828,62.22c0.251,0.716-0.14,1.499-0.874,1.753c-0.741,0.224-1.504-0.177-1.75-0.901
		c-0.222-0.716,0.155-1.524,0.894-1.75C142.818,61.1,143.606,61.479,143.828,62.22z"/>
	<path style="fill:#FFFFFF;" d="M137.679,64.332c0.268,0.716-0.091,1.502-0.812,1.794c-0.716,0.268-1.524-0.089-1.794-0.812
		c-0.273-0.714,0.091-1.519,0.807-1.794C136.601,63.254,137.381,63.611,137.679,64.332z"/>
	<path style="fill:#FFFFFF;" d="M131.611,66.754c0.313,0.697,0,1.529-0.716,1.844c-0.672,0.29-1.509-0.027-1.817-0.721
		c-0.318-0.694,0-1.526,0.697-1.839C130.491,65.745,131.303,66.063,131.611,66.754z"/>
	<path style="fill:#FFFFFF;" d="M125.689,69.494c0.357,0.667,0.091,1.524-0.606,1.863c-0.672,0.337-1.509,0.066-1.861-0.603
		c-0.364-0.677-0.071-1.529,0.601-1.866C124.514,68.551,125.327,68.822,125.689,69.494z"/>
	<path style="fill:#FFFFFF;" d="M119.914,72.549c0.384,0.672,0.162,1.504-0.519,1.886c-0.645,0.382-1.499,0.158-1.886-0.49
		c-0.374-0.677-0.155-1.529,0.514-1.886C118.683,71.648,119.535,71.877,119.914,72.549z"/>
	<path style="fill:#FFFFFF;" d="M114.326,75.894c0.399,0.65,0.222,1.504-0.409,1.905c-0.65,0.431-1.524,0.249-1.922-0.401
		c-0.409-0.625-0.236-1.484,0.399-1.908C113.044,75.067,113.898,75.244,114.326,75.894z"/>
	<path style="fill:#FFFFFF;" d="M108.889,79.53c0.453,0.61,0.313,1.484-0.318,1.935c-0.601,0.45-1.472,0.313-1.932-0.295
		c-0.443-0.625-0.308-1.482,0.318-1.952C107.586,78.794,108.438,78.927,108.889,79.53z"/>
	<path style="fill:#FFFFFF;" d="M103.682,83.463c0.475,0.578,0.384,1.46-0.226,1.925c-0.581,0.495-1.462,0.409-1.927-0.197
		c-0.495-0.61-0.404-1.462,0.197-1.952C102.316,82.764,103.188,82.853,103.682,83.463z"/>
	<path style="fill:#FFFFFF;" d="M98.654,87.636c0.514,0.564,0.475,1.438-0.091,1.957c-0.581,0.514-1.438,0.473-1.957-0.111
		c-0.514-0.566-0.465-1.438,0.116-1.957C97.26,87.008,98.159,87.052,98.654,87.636z"/>
	<path style="fill:#FFFFFF;" d="M93.89,92.081c0.544,0.539,0.544,1.393,0,1.932c-0.559,0.564-1.438,0.564-1.977,0
		c-0.534-0.539-0.534-1.393,0-1.932C92.453,91.525,93.332,91.525,93.89,92.081z"/>
	<path style="fill:#FFFFFF;" d="M89.332,96.756c0.564,0.514,0.606,1.388,0.116,1.952c-0.514,0.564-1.388,0.606-1.982,0.111
		c-0.554-0.514-0.601-1.391-0.091-1.974C87.874,96.305,88.77,96.239,89.332,96.756z"/>
	<path style="fill:#FFFFFF;" d="M85.049,101.671c0.576,0.468,0.667,1.346,0.197,1.954c-0.465,0.586-1.366,0.672-1.952,0.197
		c-0.586-0.47-0.677-1.366-0.202-1.95C83.567,101.29,84.438,101.201,85.049,101.671z"/>
	<path style="fill:#FFFFFF;" d="M81.004,106.811c0.63,0.455,0.766,1.305,0.313,1.935c-0.448,0.63-1.322,0.761-1.932,0.313
		c-0.625-0.453-0.761-1.322-0.308-1.952C79.52,106.501,80.374,106.363,81.004,106.811z"/>
	<path style="fill:#FFFFFF;" d="M77.25,112.135c0.655,0.428,0.832,1.28,0.404,1.908c-0.423,0.65-1.275,0.852-1.903,0.423
		c-0.65-0.423-0.832-1.28-0.404-1.903C75.749,111.911,76.601,111.729,77.25,112.135z"/>
	<path style="fill:#FFFFFF;" d="M73.775,117.681c0.672,0.359,0.894,1.214,0.514,1.883c-0.379,0.655-1.236,0.903-1.908,0.5
		c-0.655-0.384-0.874-1.216-0.495-1.893C72.268,117.499,73.12,117.275,73.775,117.681z"/>
	<path style="fill:#FFFFFF;" d="M70.612,123.385c0.667,0.337,0.938,1.167,0.601,1.839c-0.357,0.697-1.186,0.965-1.861,0.608
		c-0.692-0.34-0.967-1.174-0.606-1.866C69.081,123.294,69.913,123.023,70.612,123.385z"/>
	<path style="fill:#FFFFFF;" d="M67.712,129.218c0.716,0.32,1.034,1.125,0.716,1.844c-0.313,0.694-1.12,1.009-1.836,0.694
		c-0.672-0.315-0.99-1.122-0.672-1.814C66.206,129.218,67.038,128.908,67.712,129.218z"/>
	<path style="fill:#FFFFFF;" d="M65.15,135.237c0.726,0.268,1.081,1.078,0.807,1.772c-0.263,0.724-1.078,1.078-1.794,0.812
		c-0.721-0.295-1.078-1.078-0.783-1.794C63.643,135.306,64.433,134.966,65.15,135.237z"/>
	<path style="fill:#FFFFFF;" d="M62.91,141.346c0.736,0.251,1.125,1.034,0.898,1.75c-0.231,0.719-1.034,1.125-1.755,0.901
		c-0.721-0.254-1.12-1.036-0.898-1.758C61.403,141.526,62.193,141.122,62.91,141.346z"/>
	<path style="fill:#FFFFFF;" d="M60.994,147.589c0.741,0.202,1.196,0.965,0.967,1.703c-0.182,0.719-0.938,1.174-1.684,0.985
		c-0.741-0.224-1.186-0.962-0.985-1.706C59.495,147.838,60.256,147.409,60.994,147.589z"/>
	<path style="fill:#FFFFFF;" d="M59.404,153.918c0.736,0.158,1.211,0.898,1.054,1.639c-0.158,0.741-0.871,1.233-1.639,1.078
		c-0.741-0.155-1.211-0.894-1.078-1.639C57.922,154.235,58.639,153.765,59.404,153.918z"/>
	<path style="fill:#FFFFFF;" d="M58.149,160.318c0.736,0.116,1.255,0.83,1.145,1.595c-0.111,0.763-0.832,1.255-1.595,1.142
		c-0.766-0.111-1.26-0.827-1.15-1.593C56.665,160.721,57.386,160.209,58.149,160.318z"/>
	<path style="fill:#FFFFFF;" d="M57.201,166.789c0.766,0.086,1.322,0.761,1.236,1.524c-0.062,0.766-0.741,1.322-1.504,1.231
		c-0.761-0.086-1.322-0.761-1.26-1.519C55.769,167.254,56.438,166.72,57.201,166.789z"/>
	<path style="fill:#FFFFFF;" d="M56.62,173.297c0.766,0.025,1.346,0.67,1.322,1.46c-0.044,0.763-0.692,1.349-1.457,1.297
		c-0.77-0.047-1.351-0.692-1.302-1.455C55.202,173.836,55.86,173.255,56.62,173.297z"/>
	<path style="fill:#FFFFFF;" d="M56.394,179.808c0.766,0,1.393,0.606,1.376,1.393c0,0.761-0.61,1.371-1.376,1.371
		c-0.766,0-1.388-0.61-1.388-1.371C55.006,180.414,55.631,179.808,56.394,179.808z"/>
	<path style="fill:#FFFFFF;" d="M56.485,186.341c0.766-0.044,1.413,0.539,1.457,1.302c0.025,0.766-0.559,1.418-1.322,1.462
		c-0.761,0.044-1.418-0.564-1.438-1.327C55.134,187.015,55.717,186.388,56.485,186.341z"/>
	<path style="fill:#FFFFFF;" d="M56.933,192.854c0.766-0.089,1.442,0.468,1.504,1.214c0.086,0.761-0.47,1.462-1.236,1.529
		c-0.766,0.086-1.433-0.455-1.529-1.216C55.611,193.615,56.172,192.945,56.933,192.854z"/>
	<path style="fill:#FFFFFF;" d="M57.696,199.323c0.766-0.116,1.487,0.401,1.595,1.167c0.111,0.763-0.409,1.46-1.145,1.575
		c-0.766,0.13-1.487-0.409-1.6-1.15C56.438,200.155,56.933,199.454,57.696,199.323z"/>
	<path style="fill:#FFFFFF;" d="M58.818,205.762c0.77-0.155,1.482,0.315,1.639,1.061c0.158,0.761-0.318,1.482-1.054,1.659
		c-0.766,0.138-1.482-0.335-1.664-1.078C57.605,206.639,58.078,205.92,58.818,205.762z"/>
	<path style="fill:#FFFFFF;" d="M60.278,212.121c0.746-0.18,1.499,0.222,1.684,0.985c0.207,0.721-0.226,1.487-0.98,1.686
		c-0.726,0.202-1.487-0.254-1.689-0.965C59.092,213.086,59.54,212.32,60.278,212.121z"/>
	<path style="fill:#FFFFFF;" d="M62.053,218.405c0.721-0.246,1.524,0.158,1.755,0.896c0.226,0.724-0.187,1.484-0.898,1.733
		c-0.716,0.246-1.504-0.16-1.755-0.879C60.933,219.419,61.332,218.629,62.053,218.405z"/>
	<path style="fill:#FFFFFF;" d="M64.162,224.581c0.716-0.293,1.529,0.066,1.794,0.783c0.273,0.716-0.081,1.526-0.807,1.794
		c-0.716,0.273-1.504-0.091-1.77-0.807C63.087,225.634,63.441,224.852,64.162,224.581z"/>
	<path style="fill:#FFFFFF;" d="M66.592,230.619c0.716-0.293,1.524,0,1.836,0.716c0.318,0.697,0,1.529-0.716,1.841
		c-0.672,0.293-1.504-0.02-1.817-0.716C65.578,231.764,65.918,230.932,66.592,230.619z"/>
	<path style="fill:#FFFFFF;" d="M69.327,236.549c0.697-0.34,1.529-0.066,1.886,0.606c0.337,0.697,0.066,1.529-0.62,1.866
		c-0.677,0.357-1.509,0.089-1.846-0.61C68.384,237.738,68.66,236.906,69.327,236.549z"/>
	<path style="fill:#FFFFFF;" d="M72.379,242.341c0.672-0.404,1.529-0.177,1.908,0.492c0.379,0.677,0.158,1.504-0.514,1.886
		c-0.677,0.384-1.504,0.155-1.89-0.492C71.505,243.552,71.727,242.698,72.379,242.341z"/>
	<path style="fill:#FFFFFF;" d="M75.749,247.931c0.63-0.426,1.482-0.249,1.903,0.406c0.428,0.65,0.251,1.499-0.404,1.908
		c-0.65,0.423-1.499,0.224-1.903-0.409C74.919,249.211,75.102,248.359,75.749,247.931z"/>
	<path style="fill:#FFFFFF;" d="M79.385,253.342c0.61-0.45,1.487-0.315,1.932,0.315c0.453,0.628,0.318,1.484-0.313,1.93
		c-0.63,0.446-1.487,0.315-1.927-0.313C78.624,254.668,78.759,253.792,79.385,253.342z"/>
	<path style="fill:#FFFFFF;" d="M83.294,258.572c0.586-0.49,1.462-0.401,1.932,0.204c0.49,0.578,0.399,1.46-0.177,1.93
		c-0.61,0.495-1.482,0.409-1.957-0.177C82.597,259.924,82.708,259.042,83.294,258.572z"/>
	<path style="fill:#FFFFFF;" d="M87.466,263.582c0.591-0.514,1.438-0.47,1.952,0.089c0.519,0.583,0.475,1.46-0.086,1.977
		c-0.564,0.497-1.457,0.45-1.957-0.113C86.865,264.975,86.914,264.096,87.466,263.582z"/>
	<path style="fill:#FFFFFF;" d="M91.914,268.364c0.539-0.542,1.418-0.542,1.952,0c0.566,0.537,0.549,1.413,0,1.952
		c-0.534,0.542-1.413,0.542-1.952,0C91.38,269.78,91.38,268.901,91.914,268.364z"/>
	<path style="fill:#FFFFFF;" d="M96.606,272.923c0.519-0.583,1.376-0.633,1.957-0.111c0.566,0.514,0.606,1.388,0.091,1.952
		c-0.495,0.559-1.393,0.601-1.957,0.086C96.14,274.358,96.091,273.482,96.606,272.923z"/>
	<path style="fill:#FFFFFF;" d="M101.529,277.211c0.465-0.608,1.346-0.697,1.927-0.204c0.586,0.473,0.702,1.349,0.202,1.935
		c-0.47,0.606-1.342,0.692-1.952,0.202C101.125,278.668,101.034,277.794,101.529,277.211z"/>
	<path style="fill:#FFFFFF;" d="M106.639,281.226c0.463-0.623,1.307-0.761,1.932-0.313c0.63,0.45,0.77,1.327,0.318,1.932
		c-0.453,0.628-1.302,0.768-1.932,0.313C106.331,282.713,106.198,281.856,106.639,281.226z"/>
	<path style="fill:#FFFFFF;" d="M111.995,284.999c0.399-0.65,1.25-0.854,1.903-0.423c0.65,0.423,0.827,1.28,0.404,1.905
		c-0.428,0.652-1.282,0.834-1.908,0.428C111.742,286.484,111.557,285.63,111.995,284.999z"/>
	<path style="fill:#FFFFFF;" d="M117.509,288.46c0.384-0.674,1.241-0.898,1.886-0.495c0.682,0.359,0.903,1.214,0.519,1.886
		c-0.379,0.655-1.231,0.881-1.908,0.497C117.356,289.989,117.135,289.135,117.509,288.46z"/>
	<path style="fill:#FFFFFF;" d="M123.222,291.648c0.352-0.697,1.164-0.967,1.861-0.63c0.667,0.357,0.962,1.186,0.606,1.886
		c-0.359,0.677-1.196,0.945-1.866,0.586C123.129,293.15,122.855,292.322,123.222,291.648z"/>
	<path style="fill:#FFFFFF;" d="M129.078,294.518c0.288-0.714,1.125-1.029,1.817-0.714c0.716,0.315,1.009,1.147,0.716,1.839
		c-0.308,0.697-1.14,1.012-1.836,0.697C129.078,296.025,128.761,295.217,129.078,294.518z"/>
	<path style="fill:#FFFFFF;" d="M135.072,297.081c0.268-0.716,1.078-1.078,1.794-0.81c0.721,0.295,1.081,1.078,0.788,1.799
		c-0.273,0.716-1.054,1.076-1.775,0.802C135.163,298.612,134.799,297.797,135.072,297.081z"/>
	<path style="fill:#FFFFFF;" d="M141.201,299.326c0.246-0.714,1.009-1.118,1.73-0.894c0.736,0.244,1.145,1.031,0.894,1.75
		c-0.222,0.719-1.009,1.125-1.75,0.896C141.356,300.83,140.958,300.049,141.201,299.326z"/>
	<path style="fill:#FFFFFF;" d="M147.446,301.26c0.197-0.743,0.962-1.191,1.684-0.99c0.741,0.202,1.182,0.943,0.985,1.706
		c-0.207,0.716-0.967,1.169-1.706,0.97C147.692,302.735,147.244,302.001,147.446,301.26z"/>
	<path style="fill:#FFFFFF;" d="M153.775,302.831c0.158-0.721,0.874-1.211,1.639-1.058c0.741,0.155,1.211,0.894,1.054,1.639
		c-0.155,0.763-0.871,1.236-1.639,1.081C154.092,304.332,153.625,303.591,153.775,302.831z"/>
	<path style="fill:#FFFFFF;" d="M160.177,304.108c0.111-0.763,0.827-1.278,1.568-1.142c0.766,0.111,1.275,0.805,1.164,1.573
		c-0.13,0.761-0.827,1.253-1.59,1.164C160.581,305.568,160.039,304.852,160.177,304.108z"/>
	<path style="fill:#FFFFFF;" d="M166.644,305.029c0.062-0.766,0.761-1.302,1.499-1.236c0.766,0.091,1.322,0.77,1.236,1.529
		c-0.091,0.746-0.761,1.302-1.529,1.236C167.092,306.466,166.553,305.792,166.644,305.029z"/>
	<path style="fill:#FFFFFF;" d="M173.13,305.61c0.044-0.761,0.702-1.346,1.462-1.3s1.346,0.674,1.302,1.435
		c-0.049,0.768-0.677,1.351-1.438,1.327C173.689,307.028,173.105,306.38,173.13,305.61z"/>
	<path style="fill:#FFFFFF;" d="M179.663,305.861c0-0.763,0.606-1.388,1.376-1.388c0.783,0,1.386,0.628,1.386,1.388
		c0,0.766-0.625,1.371-1.371,1.371C180.268,307.232,179.663,306.624,179.663,305.861z"/>
	<path style="fill:#FFFFFF;" d="M186.178,305.745c-0.049-0.761,0.539-1.413,1.302-1.435c0.761-0.047,1.438,0.542,1.482,1.3
		c0.025,0.77-0.566,1.418-1.327,1.462C186.865,307.116,186.22,306.513,186.178,305.745z"/>
	<path style="fill:#FFFFFF;" d="M192.687,305.322c-0.066-0.761,0.465-1.46,1.236-1.529c0.761-0.066,1.462,0.47,1.524,1.236
		c0.066,0.763-0.47,1.438-1.236,1.529C193.447,306.646,192.77,306.087,192.687,305.322z"/>
	<path style="fill:#FFFFFF;" d="M199.173,304.539c-0.106-0.768,0.379-1.462,1.145-1.573c0.766-0.135,1.487,0.379,1.578,1.142
		c0.135,0.743-0.384,1.46-1.125,1.593C200,305.812,199.289,305.297,199.173,304.539z"/>
	<path style="fill:#FFFFFF;" d="M205.62,303.414c-0.182-0.746,0.293-1.484,1.034-1.639c0.761-0.155,1.504,0.337,1.664,1.058
		c0.155,0.761-0.322,1.499-1.081,1.664C206.496,304.65,205.76,304.175,205.62,303.414z"/>
	<path style="fill:#FFFFFF;" d="M211.975,301.977c-0.202-0.766,0.222-1.504,0.962-1.706c0.746-0.202,1.504,0.249,1.716,0.99
		c0.172,0.741-0.258,1.477-0.994,1.686C212.913,303.143,212.172,302.693,211.975,301.977z"/>
	<path style="fill:#FFFFFF;" d="M218.235,300.18c-0.222-0.719,0.158-1.506,0.903-1.75c0.716-0.224,1.499,0.18,1.745,0.894
		c0.226,0.724-0.177,1.504-0.894,1.753C219.269,301.305,218.486,300.898,218.235,300.18z"/>
	<path style="fill:#FFFFFF;" d="M224.433,298.073c-0.293-0.721,0.071-1.529,0.783-1.799c0.706-0.268,1.509,0.094,1.78,0.81
		c0.288,0.716-0.091,1.529-0.783,1.794C225.487,299.146,224.702,298.789,224.433,298.073z"/>
	<path style="fill:#FFFFFF;" d="M230.496,295.643c-0.332-0.692-0.02-1.524,0.677-1.839c0.716-0.293,1.524,0,1.841,0.714
		c0.313,0.697,0,1.529-0.716,1.822C231.596,296.657,230.794,296.342,230.496,295.643z"/>
	<path style="fill:#FFFFFF;" d="M236.404,292.903c-0.332-0.697-0.091-1.529,0.606-1.863c0.667-0.359,1.499-0.089,1.841,0.608
		c0.359,0.672,0.091,1.499-0.581,1.863C237.59,293.849,236.741,293.583,236.404,292.903z"/>
	<path style="fill:#FFFFFF;" d="M242.174,289.849c-0.379-0.67-0.155-1.526,0.495-1.886c0.667-0.379,1.529-0.18,1.886,0.495
		c0.404,0.674,0.177,1.529-0.49,1.888C243.38,290.747,242.553,290.523,242.174,289.849z"/>
	<path style="fill:#FFFFFF;" d="M247.783,286.484c-0.423-0.628-0.246-1.484,0.399-1.888c0.64-0.423,1.489-0.246,1.918,0.404
		c0.399,0.63,0.222,1.484-0.409,1.91C249.049,287.335,248.182,287.134,247.783,286.484z"/>
	<path style="fill:#FFFFFF;" d="M253.201,282.846c-0.458-0.606-0.347-1.484,0.288-1.932c0.625-0.423,1.482-0.31,1.927,0.313
		c0.453,0.63,0.313,1.487-0.288,1.932C254.496,283.614,253.649,283.473,253.201,282.846z"/>
	<path style="fill:#FFFFFF;" d="M258.427,278.942c-0.49-0.586-0.404-1.462,0.182-1.935c0.601-0.492,1.482-0.404,1.952,0.204
		c0.47,0.606,0.379,1.457-0.202,1.954C259.778,279.636,258.9,279.547,258.427,278.942z"/>
	<path style="fill:#FFFFFF;" d="M263.436,274.764c-0.519-0.586-0.47-1.438,0.086-1.952c0.564-0.522,1.457-0.473,1.957,0.111
		c0.519,0.559,0.453,1.435-0.086,1.952C264.807,275.39,263.951,275.343,263.436,274.764z"/>
	<path style="fill:#FFFFFF;" d="M268.222,270.316c-0.539-0.539-0.564-1.415-0.025-1.952c0.559-0.542,1.418-0.542,1.952,0
		c0.566,0.537,0.539,1.413,0.025,1.952C269.63,270.858,268.756,270.858,268.222,270.316z"/>
	<path style="fill:#FFFFFF;" d="M272.756,265.647c-0.586-0.517-0.635-1.391-0.111-1.954c0.514-0.559,1.393-0.625,1.952-0.111
		c0.581,0.514,0.63,1.391,0.111,1.977C274.198,266.119,273.332,266.144,272.756,265.647z"/>
	<path style="fill:#FFFFFF;" d="M277.063,260.706c-0.606-0.47-0.711-1.351-0.226-1.93c0.5-0.583,1.351-0.672,1.937-0.204
		c0.606,0.47,0.697,1.374,0.222,1.957C278.501,261.115,277.649,261.201,277.063,260.706z"/>
	<path style="fill:#FFFFFF;" d="M281.086,255.586c-0.63-0.448-0.77-1.302-0.318-1.93c0.453-0.63,1.327-0.766,1.932-0.315
		c0.63,0.45,0.766,1.327,0.313,1.932C282.572,255.902,281.694,256.034,281.086,255.586z"/>
	<path style="fill:#FFFFFF;" d="M284.837,250.245c-0.63-0.409-0.832-1.26-0.409-1.908c0.409-0.63,1.26-0.832,1.903-0.406
		c0.66,0.428,0.842,1.282,0.409,1.905C286.331,250.491,285.487,250.668,284.837,250.245z"/>
	<path style="fill:#FFFFFF;" d="M288.313,244.719c-0.672-0.379-0.894-1.206-0.514-1.886c0.379-0.65,1.236-0.896,1.886-0.492
		c0.677,0.357,0.898,1.211,0.514,1.886C289.812,244.874,288.972,245.127,288.313,244.719z"/>
	<path style="fill:#FFFFFF;" d="M291.476,239.02c-0.667-0.337-0.938-1.169-0.601-1.841c0.332-0.697,1.186-0.97,1.861-0.63
		c0.677,0.359,0.948,1.189,0.61,1.886C293.004,239.109,292.177,239.375,291.476,239.02z"/>
	<path style="fill:#FFFFFF;" d="M294.356,233.179c-0.702-0.313-1.009-1.145-0.702-1.841c0.318-0.692,1.125-1.009,1.822-0.692
		c0.721,0.313,1.039,1.12,0.721,1.817C295.879,233.179,295.072,233.472,294.356,233.179z"/>
	<path style="fill:#FFFFFF;" d="M296.918,227.161c-0.721-0.268-1.086-1.078-0.793-1.794c0.273-0.694,1.063-1.054,1.775-0.783
		c0.721,0.268,1.081,1.076,0.812,1.794C298.437,227.07,297.63,227.436,296.918,227.161z"/>
	<path style="fill:#FFFFFF;" d="M299.158,221.034c-0.721-0.251-1.115-1.009-0.874-1.733c0.246-0.738,1.009-1.118,1.726-0.896
		c0.741,0.226,1.125,1.036,0.898,1.75C300.687,220.871,299.899,221.28,299.158,221.034z"/>
	<path style="fill:#FFFFFF;" d="M301.09,214.791c-0.741-0.199-1.169-0.943-0.985-1.686c0.222-0.741,0.958-1.167,1.706-0.985
		c0.736,0.199,1.164,0.967,0.985,1.706C302.597,214.567,301.831,214.993,301.09,214.791z"/>
	<path style="fill:#FFFFFF;" d="M302.683,208.48c-0.741-0.177-1.231-0.898-1.054-1.659c0.158-0.746,0.894-1.214,1.615-1.061
		c0.766,0.158,1.236,0.901,1.073,1.642C304.162,208.167,303.424,208.618,302.683,208.48z"/>
	<path style="fill:#FFFFFF;" d="M303.966,202.063c-0.77-0.116-1.302-0.812-1.169-1.575c0.135-0.766,0.832-1.282,1.568-1.147
		c0.77,0.113,1.282,0.834,1.174,1.573C305.398,201.676,304.706,202.193,303.966,202.063z"/>
	<path style="fill:#FFFFFF;" d="M304.866,195.596c-0.77-0.066-1.302-0.746-1.216-1.506c0.066-0.768,0.77-1.324,1.504-1.236
		c0.761,0.091,1.327,0.763,1.236,1.526C306.321,195.141,305.625,195.682,304.866,195.596z"/>
	<path style="fill:#FFFFFF;" d="M305.447,189.105c-0.766-0.044-1.351-0.697-1.302-1.462c0.044-0.766,0.702-1.346,1.457-1.302
		c0.77,0.047,1.351,0.697,1.327,1.462C306.89,188.564,306.21,189.15,305.447,189.105z"/>
	<path style="fill:#FFFFFF;" d="M305.716,182.572c-0.788,0-1.398-0.61-1.398-1.371c0-0.766,0.61-1.371,1.371-1.371
		c0.793,0,1.393,0.606,1.393,1.371C307.082,181.962,306.481,182.572,305.716,182.572z"/>
	<path style="fill:#FFFFFF;" d="M305.6,176.054c-0.756,0.052-1.413-0.537-1.457-1.297c-0.049-0.768,0.539-1.435,1.302-1.46
		c0.766-0.044,1.442,0.539,1.482,1.322C306.951,175.362,306.37,176.01,305.6,176.054z"/>
	<path style="fill:#FFFFFF;" d="M305.154,169.543c-0.736,0.091-1.438-0.465-1.504-1.231c-0.086-0.766,0.448-1.438,1.216-1.504
		c0.761-0.086,1.438,0.448,1.524,1.216C306.481,168.783,305.913,169.457,305.154,169.543z"/>
	<path style="fill:#FFFFFF;" d="M304.364,163.055c-0.736,0.133-1.452-0.379-1.568-1.142c-0.116-0.768,0.399-1.46,1.169-1.573
		c0.741-0.133,1.433,0.404,1.573,1.145C305.674,162.228,305.135,162.944,304.364,163.055z"/>
	<path style="fill:#FFFFFF;" d="M303.264,156.61c-0.741,0.18-1.499-0.288-1.634-1.029c-0.155-0.766,0.313-1.482,1.054-1.664
		c0.741-0.155,1.482,0.318,1.634,1.078C304.5,155.742,304.01,156.48,303.264,156.61z"/>
	<path style="fill:#FFFFFF;" d="M301.812,150.257c-0.751,0.209-1.504-0.224-1.706-0.965c-0.182-0.741,0.246-1.502,0.985-1.684
		c0.741-0.202,1.504,0.226,1.706,0.962C303.001,149.317,302.548,150.055,301.812,150.257z"/>
	<path style="fill:#FFFFFF;" d="M300.01,143.998c-0.716,0.224-1.482-0.16-1.726-0.901c-0.241-0.716,0.155-1.499,0.874-1.726
		c0.741-0.249,1.529,0.155,1.75,0.871C301.154,142.986,300.751,143.744,300.01,143.998z"/>
	<path style="fill:#FFFFFF;" d="M297.898,137.799c-0.692,0.288-1.499-0.047-1.775-0.768c-0.263-0.716,0.071-1.526,0.793-1.794
		c0.711-0.271,1.519,0.089,1.794,0.788C298.981,136.746,298.619,137.526,297.898,137.799z"/>
	<path style="fill:#FFFFFF;" d="M295.476,131.756c-0.697,0.315-1.504,0-1.822-0.694c-0.308-0.697,0-1.524,0.702-1.822
		c0.716-0.332,1.524,0,1.841,0.702C296.514,130.634,296.197,131.441,295.476,131.756z"/>
	<path style="fill:#FFFFFF;" d="M292.736,125.831c-0.672,0.357-1.529,0.089-1.861-0.608c-0.337-0.672-0.066-1.502,0.601-1.839
		c0.702-0.362,1.529-0.091,1.895,0.581C293.701,124.66,293.438,125.492,292.736,125.831z"/>
	<path style="fill:#FFFFFF;" d="M289.684,120.062c-0.65,0.404-1.504,0.177-1.886-0.5c-0.379-0.667-0.158-1.524,0.514-1.883
		c0.66-0.406,1.499-0.155,1.886,0.49C290.582,118.846,290.361,119.678,289.684,120.062z"/>
	<path style="fill:#FFFFFF;" d="M286.331,114.466c-0.645,0.428-1.494,0.251-1.903-0.399c-0.404-0.655-0.222-1.504,0.409-1.908
		c0.65-0.431,1.494-0.249,1.932,0.404C287.173,113.186,286.991,114.043,286.331,114.466z"/>
	<path style="fill:#FFFFFF;" d="M282.703,109.039c-0.606,0.465-1.482,0.337-1.932-0.293s-0.313-1.482,0.318-1.935
		c0.606-0.448,1.487-0.31,1.927,0.32C283.466,107.737,283.333,108.606,282.703,109.039z"/>
	<path style="fill:#FFFFFF;" d="M278.774,103.803c-0.586,0.495-1.438,0.409-1.937-0.177c-0.463-0.583-0.379-1.487,0.226-1.954
		c0.586-0.468,1.438-0.382,1.932,0.202S279.399,103.35,278.774,103.803z"/>
	<path style="fill:#FFFFFF;" d="M274.597,98.818c-0.559,0.495-1.438,0.473-1.952-0.091c-0.5-0.581-0.458-1.457,0.111-1.972
		c0.576-0.495,1.442-0.45,1.952,0.111C275.227,97.425,275.178,98.304,274.597,98.818z"/>
	<path style="fill:#FFFFFF;" d="M270.174,94.014c-0.559,0.564-1.418,0.564-1.952,0.022c-0.539-0.561-0.539-1.415,0-1.954
		c0.534-0.537,1.408-0.537,1.952,0C270.718,92.62,270.718,93.477,270.174,94.014z"/>
	<path style="fill:#FFFFFF;" d="M265.482,89.482c-0.5,0.583-1.393,0.625-1.957,0.111c-0.559-0.519-0.606-1.391-0.086-1.957
		c0.514-0.581,1.371-0.628,1.957-0.111C265.952,88.044,266.001,88.913,265.482,89.482z"/>
	<path style="fill:#FFFFFF;" d="M260.564,85.191c-0.47,0.606-1.351,0.692-1.952,0.197c-0.586-0.465-0.672-1.346-0.182-1.925
		c0.47-0.61,1.351-0.699,1.932-0.224C260.967,83.732,261.058,84.581,260.564,85.191z"/>
	<path style="fill:#FFFFFF;" d="M255.419,81.169c-0.448,0.608-1.302,0.77-1.927,0.318c-0.606-0.473-0.746-1.324-0.288-1.932
		c0.448-0.625,1.317-0.761,1.927-0.315C255.754,79.687,255.889,80.544,255.419,81.169z"/>
	<path style="fill:#FFFFFF;" d="M250.102,77.398c-0.428,0.65-1.28,0.857-1.918,0.423c-0.645-0.423-0.822-1.28-0.399-1.927
		c0.399-0.65,1.265-0.827,1.908-0.404C250.346,75.916,250.528,76.773,250.102,77.398z"/>
	<path style="fill:#FFFFFF;" d="M244.554,73.942c-0.357,0.65-1.216,0.894-1.886,0.49c-0.65-0.379-0.874-1.211-0.495-1.886
		c0.379-0.67,1.236-0.898,1.89-0.49C244.731,72.414,244.958,73.265,244.554,73.942z"/>
	<path style="fill:#FFFFFF;" d="M238.85,70.754c-0.342,0.67-1.174,0.962-1.841,0.603c-0.672-0.34-0.938-1.194-0.606-1.863
		c0.337-0.672,1.186-0.945,1.866-0.606C238.942,69.226,239.212,70.078,238.85,70.754z"/>
	<path style="fill:#FFFFFF;" d="M233.014,67.877c-0.318,0.694-1.125,1.036-1.841,0.721c-0.677-0.315-0.994-1.147-0.677-1.844
		c0.298-0.692,1.125-1.009,1.822-0.692C233.014,66.351,233.327,67.183,233.014,67.877z"/>
	<path style="fill:#FFFFFF;" d="M226.996,65.314c-0.268,0.724-1.054,1.081-1.78,0.812c-0.711-0.293-1.078-1.078-0.783-1.794
		c0.268-0.721,1.078-1.078,1.78-0.81C226.924,63.796,227.284,64.601,226.996,65.314z"/>
	<path style="fill:#FFFFFF;" d="M220.884,63.072c-0.246,0.724-1.029,1.125-1.745,0.901c-0.721-0.254-1.125-1.036-0.903-1.753
		c0.251-0.743,1.034-1.12,1.755-0.898C220.706,61.548,221.11,62.356,220.884,63.072z"/>
	<path style="fill:#FFFFFF;" d="M214.654,61.145c-0.212,0.738-0.953,1.191-1.716,0.985c-0.721-0.202-1.164-0.962-0.962-1.706
		c0.197-0.741,0.962-1.164,1.684-0.985C214.417,59.641,214.85,60.401,214.654,61.145z"/>
	<path style="fill:#FFFFFF;" d="M208.318,59.547c-0.158,0.738-0.903,1.236-1.644,1.081c-0.741-0.16-1.236-0.903-1.054-1.642
		c0.14-0.763,0.894-1.233,1.634-1.078C207.995,58.068,208.47,58.804,208.318,59.547z"/>
	<path style="fill:#FFFFFF;" d="M201.895,58.289c-0.091,0.77-0.812,1.282-1.578,1.15c-0.736-0.111-1.25-0.812-1.12-1.573
		c0.091-0.766,0.802-1.282,1.573-1.169C201.534,56.832,202.028,57.529,201.895,58.289z"/>
	<path style="fill:#FFFFFF;" d="M195.446,57.374c-0.062,0.763-0.741,1.3-1.524,1.233c-0.746-0.091-1.302-0.766-1.211-1.529
		c0.057-0.761,0.736-1.317,1.499-1.231C194.976,55.938,195.515,56.606,195.446,57.374z"/>
	<path style="fill:#FFFFFF;" d="M188.938,56.785c-0.02,0.768-0.677,1.349-1.438,1.302c-0.766-0.047-1.371-0.67-1.322-1.435
		c0.044-0.763,0.711-1.371,1.482-1.327C188.418,55.37,189.004,56.025,188.938,56.785z"/>
</g>
<path style="fill:#3E4959;" d="M117.332,178.437c0-27.166,16.975-50.336,40.908-59.525l-6.961-18.139
	c-0.985,0.379-3.052,1.231-4.015,1.662C105.346,121.09,86.481,170.22,105.14,212.14l17.669-7.86
	C119.289,196.377,117.332,187.643,117.332,178.437z"/>
<path style="fill:#21D8DE;" d="M122.809,204.281l-17.669,7.86c10.422,23.397,28.409,39.023,53.014,46.075l5.322-18.526
	C145.26,234.481,130.4,221.371,122.809,204.281z"/>
<path style="fill:#FFFFFF;" d="M233.282,214.902c-11.525,16.482-30.629,27.237-52.231,27.237c-6.105,0-12.005-0.857-17.578-2.449
	l-5.319,18.526c34.846,9.991,70.193-2.516,90.981-32.219L233.282,214.902z"/>
<path style="fill:#FF6D3B;" d="M181.054,95.249v19.466c35.188,0,63.702,28.514,63.702,63.722c0,13.561-4.246,26.134-11.471,36.463
	l15.85,11.097c10.4-14.848,15.02-29.531,15.02-47.646C264.155,132.453,226.946,95.249,181.054,95.249z"/>
<g>
	<path style="fill:#FFB733;" d="M181.054,114.718L181.054,114.718V95.252c-10.639,0-19.847,1.706-29.775,5.524l6.961,18.139
		C165.342,116.197,173.014,114.718,181.054,114.718z"/>
	<circle style="fill:#FFB733;" cx="158.843" cy="58.511" r="18.006"/>
</g>
<path style="fill:#FF6D3B;" d="M308.03,120.645c0,9.922-8.062,17.986-18.004,17.986c-9.947,0-18.009-8.062-18.009-17.986
	c0-9.967,8.062-18.004,18.009-18.004C299.966,102.639,308.03,110.678,308.03,120.645z"/>
<circle style="fill:#FFFFFF;" cx="223.606" cy="298.412" r="18.006"/>
<path style="fill:#21D8DE;" d="M115.943,273.888c0,9.947-8.044,18.009-18.009,18.009c-9.922,0-18.004-8.062-18.004-18.009
	c0-9.95,8.081-18.006,18.004-18.006C107.899,255.879,115.943,263.938,115.943,273.888z"/>
<path style="fill:#3E4959;" d="M84.913,131.015c0,9.952-8.086,18.011-18.009,18.011c-9.952,0-18.009-8.059-18.009-18.011
	c0-9.922,8.057-18.004,18.009-18.004C76.827,113.009,84.913,121.09,84.913,131.015z"/>
<g>
</g>
<g>
</g>
<g>
</g>
<g>
</g>
<g>
</g>
<g>
</g>
<g>
</g>
<g>
</g>
<g>
</g>
<g>
</g>
<g>
</g>
<g>
</g>
<g>
</g>
<g>
</g>
<g>
</g>
</svg>
